<?xml version="1.0" encoding="UTF-8" standalone="no"?>
<!-- Created with Inkscape (http://www.inkscape.org/) -->

<svg
   width="2167.7864mm"
   height="263.56467mm"
   viewBox="0 0 2167.7864 263.56467"
   version="1.1"
   id="svg1"
   xml:space="preserve"
   xmlns:inkscape="http://www.inkscape.org/namespaces/inkscape"
   xmlns:sodipodi="http://sodipodi.sourceforge.net/DTD/sodipodi-0.dtd"
   xmlns="http://www.w3.org/2000/svg"
   xmlns:svg="http://www.w3.org/2000/svg"><sodipodi:namedview
     id="namedview1"
     pagecolor="#ffffff"
     bordercolor="#000000"
     borderopacity="0.25"
     inkscape:showpageshadow="2"
     inkscape:pageopacity="0.0"
     inkscape:pagecheckerboard="0"
     inkscape:deskcolor="#d1d1d1"
     inkscape:document-units="mm" /><defs
     id="defs1" /><g
     inkscape:label="Camada 1"
     inkscape:groupmode="layer"
     id="layer1"
     transform="translate(478.10188,-923.06778)"><g
       id="g1"
       transform="matrix(0.90559101,0,0,0.90559101,57.192145,99.587328)"><text
         xml:space="preserve"
         style="font-size:344.825px;font-family:'Arial Rounded MT Bold';-inkscape-font-specification:'Arial Rounded MT Bold, ';fill:#fec107;fill-opacity:1;fill-rule:evenodd;stroke-width:10.8606"
         x="-357.30246"
         y="1177.9528"
         id="text1"><tspan
           sodipodi:role="line"
           id="tspan1"
           style="font-style:normal;font-variant:normal;font-weight:800;font-stretch:normal;font-family:'Noto Sans';-inkscape-font-specification:'Noto Sans Ultra-Bold';fill:#fec107;fill-opacity:1;stroke-width:10.8606"
           x="-357.30246"
           y="1177.9528">FINTRACKER</tspan></text><g
         id="g3"
         transform="matrix(0.26458333,0,0,0.26458333,-652.02525,896.10017)">
	<path
   fill="#f68e00"
   d="m 969.728,848.718 v 77.595 c 0,15.674 -9.646,30.595 -27.046,44.146 v 67.29 c 0,61.994 -150.701,112.251 -336.6,112.251 -185.899,0 -336.6,-50.256 -336.6,-112.251 v -77.595 c 0,13.421 7.073,26.289 20.026,38.218 46.881,43.178 170.918,74.033 316.574,74.033 145.656,0 269.693,-30.855 316.574,-74.033 9.145,-8.422 17.166,-18.691 20.026,-27.914 -52.366,39.31 -172.256,68.105 -309.555,68.105 -185.899,0 -336.6,-50.257 -336.6,-112.251 v -10.304 -64.33 c -41.621,-18.68 -66.255,-41.82 -66.255,-66.88 v -77.595 c 0,13.421 7.074,26.289 20.026,38.218 46.881,43.178 170.918,74.033 316.574,74.033 145.656,0 269.693,-30.855 316.574,-74.033 12.953,-11.93 20.026,-24.797 20.026,-38.218 v 74.635 2.96 c 0,15.421 -9.332,30.116 -26.205,43.492 7.642,6.449 11.781,13.309 11.781,20.428 0,6.381 -3.383,12.548 -9.573,18.404 -7.395,-6.996 -18.919,-13.531 -33.791,-19.418 -60.527,29.777 -162.816,49.345 -278.813,49.345 -53.456,0 -103.989,-4.163 -148.878,-11.558 -48.051,-7.916 -89.749,-19.596 -121.468,-33.813 0.976,12.333 8.047,24.226 20.026,35.258 46.881,43.178 170.918,74.033 316.574,74.033 145.656,0 269.693,-30.855 316.574,-74.033 12.955,-11.929 20.029,-24.797 20.029,-38.218 z M 358.206,667.877 c -29.72,11.103 -47.255,24.667 -47.255,39.327 0,6.381 3.383,12.549 9.573,18.404 13.126,-12.416 39.197,-23.393 74.088,-31.842 105.174,64.662 238.802,64.613 343.933,-0.147 35.191,8.468 61.476,19.502 74.676,31.989 6.19,-5.855 9.573,-12.023 9.573,-18.404 0,-14.754 -17.759,-28.399 -47.828,-39.542 8.196,-6.746 16.159,-13.92 23.821,-21.582 l 13.453,-12.442 20.504,-23.11 -0.004,-0.003 C 891.988,551.096 928.621,469.107 928.621,378.559 928.621,276.491 882.079,185.293 809.06,125.03 752.266,78.157 679.453,50 600.063,50 509.534,50 427.56,86.618 368.134,145.845 c 0,0 -0.011,0.003 -0.011,0.003 l -0.122,0.128 c -3.769,3.761 -7.448,7.611 -11.032,11.549 l -22.834,23.904 c -128.31,128.31 -128.31,336.342 0,464.651 7.741,7.74 15.785,14.99 24.071,21.797 z"
   id="path1" />
	<path
   fill="#ffff71"
   d="m 633.127,1038.564 c 137.298,0 257.188,-28.795 309.555,-68.105 -2.86,9.223 -10.881,19.491 -20.026,27.914 -46.881,43.178 -170.918,74.033 -316.574,74.033 -145.656,0 -269.693,-30.855 -316.574,-74.033 -12.953,-11.93 -20.026,-24.798 -20.026,-38.218 0,-15.674 9.646,-30.595 27.046,-44.145 v 10.304 c -0.001,61.993 150.7,112.25 336.599,112.25 z M 903.473,781.838 v 2.96 c 0,15.421 -9.332,30.116 -26.205,43.492 7.642,6.449 11.781,13.309 11.781,20.428 0,6.381 -3.383,12.548 -9.573,18.404 -30.226,28.593 -129.033,49.565 -246.348,49.565 -90.302,0 -169.599,-12.433 -215.132,-31.196 -48.051,-7.916 -89.749,-19.596 -121.468,-33.813 0.976,12.333 8.047,24.226 20.026,35.258 46.881,43.178 170.918,74.033 316.574,74.033 145.656,0 269.693,-30.855 316.574,-74.033 12.952,-11.93 20.026,-24.798 20.026,-38.218 0,-25.06 -24.634,-48.2 -66.255,-66.88 z M 495.427,476.397 V 438.663 281.46 c 0,-14.248 11.55,-25.798 25.799,-25.798 h 20.869 v -27.405 c 0,-12.153 9.852,-22.012 22.012,-22.012 12.16,0 22.012,9.86 22.012,22.012 v 27.405 h 32.946 v -27.405 c 0,-12.153 9.853,-22.012 22.012,-22.012 12.16,0 22.013,9.86 22.013,22.012 v 31.767 c 2.965,0.719 5.814,1.529 8.549,2.427 8.301,2.725 15.541,6.269 21.718,10.637 16.43,11.622 24.656,27.301 24.656,47.02 0,11.75 -2.881,22.255 -8.635,31.527 -5.754,9.272 -13.908,16.609 -24.477,22.012 14.087,4.929 25.122,12.625 33.111,23.058 7.975,10.462 11.973,23.072 11.973,37.862 0,21.611 -8.692,38.278 -26.06,50.014 -10.608,7.173 -24.459,11.879 -40.836,14.669 v 29.608 c 0,12.152 -9.852,22.012 -22.013,22.012 -12.159,0 -22.012,-9.86 -22.012,-22.012 v -26.665 h -32.946 v 26.665 c 0,12.152 -9.852,22.012 -22.012,22.012 -12.16,0 -22.012,-9.86 -22.012,-22.012 v -26.665 h -20.869 c -14.248,0.001 -25.798,-11.549 -25.798,-25.796 z M 564.451,353.57 h 16.07 31.831 c 23.474,0 35.218,-7.982 35.218,-23.947 0,-12.081 -6.951,-19.506 -20.791,-22.311 -4.186,-0.848 -8.976,-1.291 -14.427,-1.291 h -47.901 z m 0,98.266 h 58.47 c 24.413,0 36.623,-8.341 36.623,-25.007 0,-16.666 -12.21,-25.007 -36.623,-25.007 h -58.47 z M 346.534,587.555 C 299.661,530.761 271.504,457.947 271.504,378.558 271.505,197.101 418.605,50 600.063,50 c 79.39,0 152.203,28.157 208.997,75.03 73.019,60.263 119.561,151.46 119.561,253.529 0,181.458 -147.101,328.559 -328.558,328.559 C 497.995,707.117 406.797,660.575 346.534,587.555 Z m 52.343,-52.342 c 6.6,8.514 13.747,16.743 21.564,24.561 95.225,95.225 245.951,100.627 346.954,15.206 0.219,-0.163 0.444,-0.351 0.611,-0.515 5.482,-4.635 10.823,-9.522 15.992,-14.69 100.393,-100.393 100.393,-263.163 0,-363.556 -7.818,-7.818 -16.054,-14.954 -24.57,-21.555 -100.836,-78.156 -246.411,-71.02 -338.986,21.555 -5.168,5.168 -10.055,10.51 -14.69,15.991 0,0 0,0 0,0 -78.41,92.711 -80.668,227.797 -6.875,323.003 z m 484.57,210.209 c 12.953,-11.93 20.026,-24.797 20.026,-38.218 0,-29.524 -35.351,-53.527 -91.233,-73.566 l -13.453,12.442 c -7.662,7.662 -15.625,14.836 -23.821,21.582 30.07,11.143 47.828,24.787 47.828,39.542 0,6.381 -3.383,12.549 -9.573,18.404 -30.226,28.593 -129.033,49.565 -246.348,49.565 -117.315,0 -216.123,-20.972 -246.348,-49.565 -6.19,-5.855 -9.573,-12.023 -9.573,-18.404 0,-14.66 17.534,-28.224 47.255,-39.327 -8.286,-6.807 -16.33,-14.056 -24.071,-21.797 -4.928,-4.928 -9.6,-10.011 -14.149,-15.165 -55.666,20.025 -89.714,46.829 -89.714,76.289 0,13.421 7.074,26.289 20.026,38.218 46.881,43.178 170.918,74.033 316.574,74.033 145.656,0 269.693,-30.855 316.574,-74.033 z"
   id="path2" />
	<path
   fill="#ffb000"
   d="m 879.476,867.123 c -30.226,28.593 -129.033,49.565 -246.348,49.565 -90.302,0 -169.599,-12.433 -215.132,-31.196 44.889,7.395 95.422,11.558 148.878,11.558 115.997,0 218.285,-19.568 278.813,-49.345 14.87,5.887 26.394,12.422 33.789,19.418 z M 637.018,450.64 c 0.019,-0.452 0.064,-0.886 0.064,-1.35 0,-16.667 -12.21,-25.008 -36.622,-25.008 h -36.009 v 27.554 h 58.47 c 5.282,0 9.957,-0.414 14.097,-1.196 z m -11.933,-98.058 c 0.003,-0.169 0.024,-0.327 0.024,-0.498 0,-15.735 -11.744,-23.603 -35.218,-23.603 h -25.44 v 25.089 h 47.901 c 4.728,0 8.957,-0.34 12.733,-0.988 z M 420.441,559.774 C 325.216,464.549 320.329,313.213 405.751,212.209 506.754,126.788 658.09,131.675 753.316,226.9 c 95.225,95.225 100.112,246.561 14.691,347.564 -101.004,85.422 -252.341,80.535 -347.566,-14.69 z m 52.525,-60.917 c 0,14.248 11.551,25.799 25.799,25.799 h 20.869 v 26.665 c 0,12.153 9.852,22.012 22.012,22.012 8.545,0 13.599,-4.806 19.389,-10.354 9.352,-8.961 25.084,-19.806 25.084,-34.119 v -4.204 h 10.486 v 26.665 c 0,12.152 9.852,22.012 22.011,22.012 14.811,0 27.035,-17.86 36.391,-27.282 4.767,-4.801 8.083,-10.199 8.083,-17.191 v -12.8 c 6.883,-2.429 13.04,-5.41 18.375,-9.018 10.007,-6.762 19.615,-16.346 28.062,-24.893 13.501,-13.662 20.459,-27.805 20.459,-47.582 0,-14.789 -3.998,-27.4 -11.973,-37.862 -7.523,-9.869 -19.388,-18.715 -33.112,-23.059 2.66,-1.185 15.224,-7.411 24.477,-22.012 16.59,-26.179 8.963,-60.874 -16.022,-78.548 -8.211,-5.807 -18.3,-10.16 -30.267,-13.064 v -31.766 c 0,-12.153 -9.852,-22.012 -22.012,-22.012 -14.721,0 -26.728,17.621 -36.047,26.94 -6.411,6.411 -8.426,13.704 -8.426,22.477 h -10.486 v -27.405 c 0,-12.153 -9.852,-22.012 -22.011,-22.012 -14.688,-0.001 -26.849,17.741 -36.156,27.048 -4.872,4.872 -8.318,10.289 -8.318,17.425 0,0 0,5.023 0,5.024 0,-0.745 -9.638,2.488 -10.447,2.913 -7.07,3.717 -12.374,10.746 -17.912,16.283 -8.273,8.27 -18.309,16.204 -18.309,28.983 v 194.937 z m 340.255,226.751 c -13.2,-12.487 -39.485,-23.521 -74.676,-31.989 -105.131,64.76 -238.759,64.809 -343.933,0.147 -34.891,8.449 -60.962,19.426 -74.088,31.842 30.226,28.593 129.033,49.565 246.348,49.565 117.315,0 216.123,-20.972 246.349,-49.565 z"
   id="path3" />
</g></g></g></svg>
